Coordinates
version=1
nRows=13
nColumns=36
inDegrees=yes

Units are S.I. units (second, meters, Newtons, ...)
If the header above contains a line with 'inDegrees', this indicates whether rotational values are in degrees (yes) or radians (no).

endheader
time	pelvis_tilt	pelvis_list	pelvis_rotation	pelvis_tx	pelvis_ty	pelvis_tz	hip_flexion_r	hip_adduction_r	hip_rotation_r	knee_angle_r	knee_angle_r_beta	ankle_angle_r	subtalar_angle_r	mtp_angle_r	hip_flexion_l	hip_adduction_l	hip_rotation_l	knee_angle_l	knee_angle_l_beta	ankle_angle_l	subtalar_angle_l	mtp_angle_l	lumbar_extension	lumbar_bending	lumbar_rotation	arm_flex_r	arm_add_r	arm_rot_r	elbow_flex_r	pro_sup_r	arm_flex_l	arm_add_l	arm_rot_l	elbow_flex_l	pro_sup_l
      0.00000000	     -4.52775328	      2.79909817	     -5.70541215	      0.45938755	      0.89310823	     -0.07376443	      9.45763733	      3.62763446	      1.65910316	     11.54346727	      0.20147151	      2.70579257	    -16.65845459	     -6.70648167	     21.53640420	     -3.69447329	     -4.67242244	     16.86888105	      0.29441752	      3.34710013	    -13.39442822	     -6.70648167	     -2.58152880	      7.93039434	     -2.84139474	     47.95378206	     14.27686753	     67.18631310	    114.96861285	    106.15929454	     33.31650395	     18.69655886	     61.23024932	    118.73189921	    106.12270549
      0.01666670	     -5.44922676	      3.13848280	     -6.97880848	      0.45540133	      0.89226784	     -0.07654471	     11.29140635	      3.27857085	      2.93319507	     12.15788359	      0.21219510	      7.46893713	    -16.40434332	     -6.79255040	     22.95959925	     -3.61182044	     -6.26641669	     17.77283739	      0.31019453	      4.79421071	    -13.07806172	     -6.79255040	     -1.56996717	      8.96084591	     -2.23138170	     50.63677579	     14.49311489	     68.82175183	    116.58858010	    104.16358662	     34.98508062	     18.98620637	     61.81391747	    120.17137221	    104.13395121
      0.03333330	     -6.17836561	      3.40770655	     -6.98790357	      0.46067626	      0.89137689	     -0.07359430	     11.06425699	      3.00680772	      2.44722170	     10.75274076	      0.18767073	      8.02652993	    -16.06716005	     -6.83777014	     23.73841673	     -3.51326215	     -6.35837891	     18.03753431	      0.31481436	      5.15344266	    -13.16221932	     -6.83777014	     -0.07855883	      8.65286945	     -2.05379529	     49.72196654	     14.38423349	     69.83414362	    117.50767695	    103.35409610	     34.40478008	     18.75653542	     62.26967530	    121.04503383	    103.31879909
      0.05000000	     -6.28112512	      3.39795772	     -6.87162480	      0.46083564	      0.89151102	     -0.07350291	     10.46690507	      3.06023457	      2.30057892	      9.82318781	      0.17144697	      8.54267576	    -15.42768313	     -6.89952049	     23.84882356	     -3.47946666	     -6.04238348	     18.45668168	      0.32212986	      5.47973849	    -13.17264386	     -6.89952049	      0.31715041	      8.58697310	     -2.18291326	     49.37249765	     14.29331078	     71.44859146	    117.75536693	    101.55394533	     34.51678818	     18.71864511	     63.14906848	    121.27477827	    101.59644714
      0.06666670	     -6.56593164	      3.27441168	     -6.86424610	      0.45694133	      0.89055097	     -0.07635324	     10.35697939	      3.22517858	      2.30801044	      8.95783025	      0.15634363	      8.37096274	    -15.12732575	     -6.90559536	     24.18342706	     -3.56547961	     -5.99593362	     18.68740573	      0.32615676	      5.20780477	    -13.21817237	     -6.90559536	      0.77840151	      8.93087605	     -2.03531512	     49.11943227	     13.93734863	     72.17864342	    117.43779715	    101.54378468	     34.29322090	     18.72261139	     63.43885251	    121.10000835	    101.62004910
      0.08333330	     -6.92526511	      3.11266534	     -6.40928548	      0.45741241	      0.89027274	     -0.07648035	     10.36856845	      3.38319062	      2.11145350	      8.21348144	      0.14335229	      8.16335095	    -14.86569387	     -7.07404738	     24.74312370	     -3.48446883	     -5.43743891	     18.93634720	      0.33050161	      4.81232596	    -14.00718812	     -7.07404738	      1.33018838	      9.26247630	     -2.00865265	     48.98660962	     13.46444168	     72.56882656	    116.91358958	     99.59351530	     33.44807225	     18.71103041	     64.22710745	    121.30018344	    100.08835830
      0.10000000	     -6.95986300	      3.05478187	     -6.00379565	      0.46184630	      0.89056582	     -0.07388092	      9.80492249	      3.48068941	      2.16397412	      7.34792573	      0.12824550	      8.21785983	    -14.74317689	     -7.07622147	     24.67968925	     -3.37786512	     -4.89520870	     18.96247925	      0.33095770	      4.98129848	    -13.96506905	     -7.07622147	      1.66350452	      9.27441046	     -1.54212965	     48.82427291	     13.04831893	     72.46488322	    116.49049745	     99.53034083	     31.74259540	     18.56168806	     65.19699794	    121.54919154	    100.09472791
      0.11666670	     -7.10110738	      2.97553897	     -5.53333824	      0.46225689	      0.89058832	     -0.07403928	      9.31559952	      3.60631316	      2.09878486	      6.47445638	      0.11300058	      7.52031327	    -14.78182592	     -7.16657355	     24.67999724	     -3.28525632	     -4.42758348	     18.98347681	      0.33132417	      4.68894883	    -14.39890738	     -7.16657355	      2.06560191	      9.28058966	     -1.72733261	     48.09951463	     13.00846326	     72.11739291	    115.98631365	     97.02955352	     31.00080917	     18.44685688	     65.95858036	    121.70705006	     97.54728307
      0.13333330	     -7.43978584	      2.93138853	     -5.30769152	      0.46234591	      0.89002801	     -0.07418027	      9.50162585	      3.73662068	      1.85163167	      6.25195333	      0.10911717	      7.72760674	    -14.26279904	     -7.19299874	     24.81262629	     -3.24527479	     -4.05301223	     19.34283766	      0.33759620	      4.91456671	    -14.11295152	     -7.19299874	      2.78569737	      9.20548118	     -1.77959094	     47.55524061	     13.15601609	     71.77635661	    115.56063191	     95.63860193	     30.06775219	     18.28660708	     66.34201666	    121.46736244	     96.14653582
      0.15000000	     -7.10956881	      2.94150120	     -5.05620288	      0.46218538	      0.89079804	     -0.07429421	      9.06803634	      3.71466956	      1.53240450	      6.16779723	      0.10764837	      7.28520495	    -14.65202242	     -7.22981198	     24.21800284	     -2.95354484	     -3.69448472	     19.69282164	      0.34370458	      4.88645479	    -14.58236092	     -7.22981198	      2.35055476	      9.05297963	     -2.39125396	     47.40690627	     13.71305345	     71.70059829	    115.60201952	     94.14479349	     30.02434295	     17.96564762	     66.53579433	    121.72124120	     94.29705196
      0.16666670	     -7.05199071	      2.95220922	     -4.98617421	      0.46207268	      0.89078658	     -0.07439021	      9.01374314	      3.73123612	      1.71968407	      6.24302856	      0.10896140	      6.84186060	    -15.25551183	     -7.32207543	     24.07743063	     -2.70767005	     -3.35845758	     20.86780160	      0.36421185	      4.98874289	    -15.23356012	     -7.32207543	      2.43549858	      8.96097302	     -2.68142650	     47.33530316	     14.07377466	     71.48039909	    115.25647599	     96.76867911	     30.12814537	     17.86486383	     66.29785564	    121.37528524	     93.81720696
      0.18333330	     -7.04096606	      2.89650773	     -4.90609189	      0.46169961	      0.89139817	     -0.07944765	      9.12014534	      3.64850313	      1.50443011	      6.47833686	      0.11306831	      6.69232056	    -15.31011396	     -7.32458836	     24.12539330	     -2.36775848	     -3.35813098	     22.34884397	      0.39006091	      5.46239782	    -15.80266030	     -7.32458836	      2.39079471	      9.21777640	     -3.05989569	     47.45393151	     14.18879149	     71.44427464	    115.45178659	     96.78349267	     30.62091755	     17.86968306	     65.77574751	    120.73158098	     93.70705561
      0.20000000	     -7.00065809	      3.09311183	     -5.02358387	      0.46177774	      0.89143570	     -0.07925203	      9.10010636	      3.35738515	      1.48847038	      6.62073830	      0.11555368	      6.56913754	    -15.24243940	     -7.32533380	     23.94401136	     -1.89403667	     -3.54659370	     23.30691184	      0.40678235	      5.85825805	    -16.24736657	     -7.32533380	      2.37661524	      9.12909556	     -3.06584010	     47.40958253	     14.31135002	     71.46279227	    115.50975674	     96.78795751	     30.83352073	     17.82645798	     65.30942450	    120.40686604	     93.64046533
